<svg width="512" height="512" viewBox="0 0 512 512" fill="none" xmlns="http://www.w3.org/2000/svg">
<path d="M248.32 136.093C246.574 136.093 244.826 135.426 243.493 134.093L224.187 114.787C221.522 112.121 221.522 107.8 224.187 105.134C226.853 102.468 231.174 102.468 233.84 105.134L253.146 124.44C255.812 127.106 255.812 131.427 253.146 134.093C251.813 135.427 250.067 136.093 248.32 136.093V136.093Z" fill="#4C241D"/>
<path d="M229.014 136.093C227.268 136.093 225.52 135.426 224.187 134.093C221.522 131.427 221.522 127.106 224.187 124.44L243.493 105.134C246.159 102.468 250.48 102.468 253.146 105.134C255.812 107.8 255.812 112.121 253.146 114.787L233.84 134.093C232.507 135.427 230.76 136.093 229.014 136.093Z" fill="#4C241D"/>
<path d="M313.76 153.747C317.53 153.747 320.587 150.69 320.587 146.92C320.587 143.15 317.53 140.093 313.76 140.093C309.99 140.093 306.933 143.15 306.933 146.92C306.933 150.69 309.99 153.747 313.76 153.747Z" fill="#4C241D"/>
<path d="M293.28 78.6533C297.05 78.6533 300.107 75.5969 300.107 71.8267C300.107 68.0564 297.05 65 293.28 65C289.51 65 286.453 68.0564 286.453 71.8267C286.453 75.5969 289.51 78.6533 293.28 78.6533Z" fill="#4C241D"/>
<path d="M395.68 440.467H122.613C111.303 440.467 102.133 431.297 102.133 419.987V406.333H416.16V419.987C416.16 431.297 406.99 440.467 395.68 440.467Z" fill="#E2E2E2"/>
<path d="M395.68 447.293H122.613C107.557 447.293 95.3066 435.046 95.3066 419.987V406.333C95.3066 402.56 98.3633 399.507 102.133 399.507H416.16C419.93 399.507 422.987 402.56 422.987 406.333V419.987C422.987 435.046 410.736 447.293 395.68 447.293ZM108.96 413.16V419.987C108.96 427.513 115.083 433.64 122.613 433.64H395.68C403.21 433.64 409.333 427.513 409.333 419.987V413.16H108.96Z" fill="#4C241D"/>
<path d="M171.697 419.987H411.119C425.214 419.987 436.642 408.815 436.642 395.033V208.36C436.642 193.278 424.417 181.053 409.335 181.053H209.897L194.751 149.637C190.18 143.38 182.799 139.667 174.935 139.667H98.8719C85.5923 139.667 74.8267 150.192 74.8267 163.174V179.712V209.746V395.033C74.8267 408.815 86.2528 419.987 100.35 419.987H136.441" fill="#6ACDF8"/>
<path d="M411.117 426.813H171.697C167.927 426.813 164.87 423.76 164.87 419.987C164.87 416.213 167.927 413.16 171.697 413.16H411.117C421.427 413.16 429.813 405.026 429.813 395.033V208.36C429.813 197.067 420.626 187.88 409.333 187.88H209.897C207.278 187.88 204.887 186.38 203.747 184.019L188.893 153.212C185.593 148.992 180.416 146.492 174.933 146.492H98.8702C89.376 146.493 81.6533 153.974 81.6533 163.173V395.032C81.6533 405.026 90.0399 413.16 100.35 413.16H136.439C140.209 413.16 143.266 416.213 143.266 419.987C143.266 423.76 140.209 426.813 136.439 426.813H100.35C82.5135 426.813 68 412.559 68 395.033V163.173C68 146.446 81.8462 132.84 98.8702 132.84H174.933C184.953 132.84 194.423 137.614 200.263 145.613C200.507 145.945 200.721 146.299 200.9 146.673L214.183 174.227H409.333C428.153 174.227 443.467 189.541 443.467 208.36V395.033C443.467 412.559 428.953 426.813 411.117 426.813V426.813Z" fill="#4C241D"/>
<path d="M211.36 187.88H163.573C159.803 187.88 156.747 184.827 156.747 181.053C156.747 177.28 159.803 174.227 163.573 174.227H211.36C215.13 174.227 218.187 177.28 218.187 181.053C218.187 184.827 215.13 187.88 211.36 187.88Z" fill="#4C241D"/>
<path d="M218.18 331.24C216.756 331.24 215.319 330.793 214.091 329.873L186.784 309.393C185.064 308.106 184.053 306.08 184.053 303.933C184.053 301.786 185.064 299.761 186.784 298.474L214.091 277.994C217.12 275.734 221.39 276.34 223.648 279.361C225.911 282.375 225.302 286.653 222.284 288.915L202.257 303.933L222.283 318.954C225.3 321.213 225.909 325.494 223.646 328.508C222.307 330.3 220.257 331.24 218.18 331.24Z" fill="#4C241D"/>
<path d="M293.287 331.24C291.21 331.24 289.16 330.3 287.82 328.506C285.557 325.492 286.167 321.213 289.184 318.952L309.21 303.933L289.184 288.913C286.167 286.653 285.557 282.373 287.82 279.359C290.083 276.338 294.36 275.732 297.378 277.992L324.684 298.472C326.405 299.759 327.415 301.785 327.415 303.932C327.415 306.079 326.405 308.104 324.684 309.391L297.378 329.871C296.147 330.793 294.71 331.24 293.287 331.24Z" fill="#4C241D"/>
<path d="M245.5 351.72C244.951 351.72 244.394 351.653 243.836 351.514C240.179 350.6 237.957 346.894 238.87 343.24L259.35 261.32C260.27 257.654 263.977 255.447 267.631 256.353C271.288 257.266 273.51 260.973 272.597 264.627L252.117 346.547C251.34 349.653 248.557 351.72 245.5 351.72Z" fill="#4C241D"/>
</svg>
